<svg xmlns="http://www.w3.org/2000/svg" viewBox="0 0 1600 1200" preserveAspectRatio="xMidYMid meet">
  <rect width="1600" height="1200" fill="#0B0E13"/>
  <circle cx="181.34738513337018" cy="580.6872299113882" r="7.413500391136185" fill="#8C7DE0" opacity="0.5619799199311935"/>
  <circle cx="383.8869057925272" cy="928.8076084065225" r="8.435528066520554" fill="#8C7DE0" opacity="0.4430285755346071"/>
  <circle cx="417.1645141490054" cy="553.3574383335024" r="6.922900144423862" fill="#8C7DE0" opacity="0.31293018415818075"/>
  <circle cx="1215.7535305144534" cy="975.8376108432026" r="3.87015296078453" fill="#8C7DE0" opacity="0.2739556730865358"/>
  <circle cx="583.9190064213401" cy="797.2588573034566" r="3.899338799212671" fill="#8C7DE0" opacity="0.21580336472954986"/>
  <circle cx="497.6421775926867" cy="877.1145217254724" r="8.08335282987618" fill="#8C7DE0" opacity="0.43772638106312795"/>
  <circle cx="1088.0337878130294" cy="318.61224320484877" r="3.7745445212084077" fill="#8C7DE0" opacity="0.38354151166174955"/>
  <circle cx="128.35217055955894" cy="958.9974317899561" r="5.127058787129813" fill="#8C7DE0" opacity="0.26061666497804215"/>
  <circle cx="1355.7080793315668" cy="391.90183600263094" r="6.600372950003516" fill="#8C7DE0" opacity="0.5938795151699983"/>
  <circle cx="352.0759121473994" cy="436.8046954452849" r="8.360835747460362" fill="#8C7DE0" opacity="0.29039447548895375"/>
  <circle cx="710.5773422301264" cy="356.5836766105161" r="7.329512307059652" fill="#8C7DE0" opacity="0.22742431535613494"/>
  <circle cx="194.12093237385682" cy="247.0666879927222" r="8.996263474679893" fill="#8C7DE0" opacity="0.5078155102754338"/>
  <circle cx="1212.278619029012" cy="927.3648790763582" r="7.143818128946435" fill="#8C7DE0" opacity="0.4967194945018592"/>
  <circle cx="480.6960103128423" cy="791.9813963554883" r="5.111844535310621" fill="#8C7DE0" opacity="0.2764017038778551"/>
  <circle cx="946.5612546929567" cy="804.4875450483158" r="6.164758197629033" fill="#8C7DE0" opacity="0.4317179995367"/>
  <circle cx="915.683643237196" cy="765.2339121422131" r="6.142458730749109" fill="#8C7DE0" opacity="0.5015415147117313"/>
  <circle cx="1165.8465269147177" cy="867.423538447266" r="6.4949638431425" fill="#8C7DE0" opacity="0.5923972431898243"/>
  <circle cx="231.64761618483018" cy="386.3447383220696" r="6.883820768296822" fill="#8C7DE0" opacity="0.5834284342673923"/>
  <circle cx="1181.2631627350563" cy="228.1476779930087" r="5.626735667575526" fill="#8C7DE0" opacity="0.23662864889006663"/>
  <circle cx="218.91384460556463" cy="498.89824919017855" r="5.486535867438019" fill="#8C7DE0" opacity="0.32380262726343"/>
  <circle cx="1276.396074828632" cy="215.55389010232426" r="8.336083995414203" fill="#8C7DE0" opacity="0.5827669154749229"/>
  <circle cx="1023.0751571561381" cy="909.5599132700675" r="4.375079362908112" fill="#8C7DE0" opacity="0.3480764739930911"/>
  <circle cx="195.95788058356047" cy="861.5773401419027" r="8.083577879821865" fill="#8C7DE0" opacity="0.33827802147584674"/>
  <circle cx="306.1074618367435" cy="631.7091775665599" r="7.755668449289036" fill="#8C7DE0" opacity="0.27204072139533714"/>
  <circle cx="161.63057219213505" cy="280.80339449264" r="6.432724524368734" fill="#8C7DE0" opacity="0.36534747454610755"/>
  <circle cx="1156.4594650432814" cy="784.0283037057998" r="7.408889856415355" fill="#8C7DE0" opacity="0.2735173775416567"/>
  <circle cx="625.9980118581325" cy="311.0687312925762" r="5.123523539099862" fill="#8C7DE0" opacity="0.5619095118406064"/>
  <circle cx="433.1020010162418" cy="218.39469709084239" r="5.482157904139875" fill="#8C7DE0" opacity="0.537016042533722"/>
  <circle cx="1448.044418647354" cy="274.4462382047755" r="3.155041570387043" fill="#8C7DE0" opacity="0.33542334797330603"/>
  <circle cx="401.3298945772142" cy="534.1526324255483" r="3.343591927423487" fill="#8C7DE0" opacity="0.48646406321468283"/>
  <circle cx="964.6955511733058" cy="708.4550911631071" r="6.197586918253128" fill="#8C7DE0" opacity="0.406040457900213"/>
  <circle cx="286.8350777028197" cy="760.6631449619798" r="8.747333392399014" fill="#8C7DE0" opacity="0.4434009915784687"/>
  <circle cx="785.2395625261455" cy="757.6978759291183" r="7.878627781835892" fill="#8C7DE0" opacity="0.30352407670418785"/>
  <circle cx="1078.0849908686432" cy="647.2548893266774" r="3.0896574756422073" fill="#8C7DE0" opacity="0.2689506833463968"/>
  <circle cx="677.4793845534671" cy="543.9488278423528" r="4.094611798792372" fill="#8C7DE0" opacity="0.3377993595868627"/>
  <circle cx="561.9600285677423" cy="361.7525899808036" r="3.6221891272464397" fill="#8C7DE0" opacity="0.47489316638002715"/>
  <circle cx="313.3637905857142" cy="233.2077693889254" r="8.276172508599583" fill="#8C7DE0" opacity="0.3531333246675582"/>
  <circle cx="1308.0073505444225" cy="862.9318485815276" r="8.42640848920848" fill="#8C7DE0" opacity="0.4951094898529354"/>
  <circle cx="577.8936227414979" cy="458.1192685694658" r="7.655430632845533" fill="#8C7DE0" opacity="0.4977808087257247"/>
  <circle cx="936.6030728139705" cy="926.5129186318711" r="7.877548155126442" fill="#8C7DE0" opacity="0.3423078223768816"/>
  <circle cx="1177.7778896296463" cy="379.83751123088086" r="3.3827380504316746" fill="#8C7DE0" opacity="0.3342407235635051"/>
  <circle cx="1295.694025766562" cy="290.37616167909414" r="4.9379394200674485" fill="#8C7DE0" opacity="0.2101647115805871"/>
  <circle cx="904.787074140445" cy="1017.1865401365538" r="3.0264933536848906" fill="#8C7DE0" opacity="0.334983235952781"/>
  <circle cx="150.3084560032299" cy="1037.8698320474027" r="6.557217396259227" fill="#8C7DE0" opacity="0.4929808528709817"/>
  <circle cx="222.0897814782884" cy="507.6334958744965" r="7.309046578222912" fill="#8C7DE0" opacity="0.2372781645008972"/>
  <circle cx="952.7618798917772" cy="208.2598985108367" r="6.042126447034073" fill="#8C7DE0" opacity="0.20806949519622586"/>
  <circle cx="599.3116406422595" cy="347.9585479696051" r="4.096904972028358" fill="#8C7DE0" opacity="0.47248715030111277"/>
  <circle cx="555.4346274142081" cy="270.12851048764566" r="8.69416059075935" fill="#8C7DE0" opacity="0.21147956093823628"/>
  <circle cx="283.4445847586011" cy="922.3881463984104" r="8.384614078869992" fill="#8C7DE0" opacity="0.24725523594797175"/>
  <circle cx="232.70111627375542" cy="764.3199197378943" r="4.938908737903917" fill="#8C7DE0" opacity="0.3258995377607671"/>
  <circle cx="230.82911003290866" cy="869.5726861434542" r="7.297537152041903" fill="#8C7DE0" opacity="0.5851419712509"/>
  <circle cx="245.14640585448845" cy="527.0203682650815" r="8.457102012020995" fill="#8C7DE0" opacity="0.5346805732417219"/>
  <circle cx="170.84361002292644" cy="755.0004026548729" r="7.643245269525839" fill="#8C7DE0" opacity="0.2997789065947636"/>
  <circle cx="458.899355943839" cy="623.264834287921" r="6.831723970153119" fill="#8C7DE0" opacity="0.5893185549963685"/>
  <circle cx="409.3696284530358" cy="236.66934529334964" r="7.197696143342922" fill="#8C7DE0" opacity="0.353868855865275"/>
  <circle cx="1372.826232486848" cy="752.3118279042255" r="4.79745988369896" fill="#8C7DE0" opacity="0.47166606378722"/>
  <circle cx="377.5018165604277" cy="478.726468699872" r="7.003329830073573" fill="#8C7DE0" opacity="0.32000521337901366"/>
  <circle cx="1300.7211132788243" cy="694.9637225971603" r="5.3819991196827015" fill="#8C7DE0" opacity="0.5246139618353354"/>
  <circle cx="1286.7328442333824" cy="508.05885847165143" r="6.654520621169278" fill="#8C7DE0" opacity="0.5589912466627074"/>
  <circle cx="1173.4687828277526" cy="549.1883732503891" r="8.456609032362206" fill="#8C7DE0" opacity="0.5426761750225695"/>
  <circle cx="129.61052660057175" cy="604.4678492225781" r="5.7516645974015015" fill="#8C7DE0" opacity="0.3133237236443909"/>
  <circle cx="1373.9832359915406" cy="718.9817197072723" r="6.4183887345147905" fill="#8C7DE0" opacity="0.3050765252102436"/>
  <circle cx="652.6372678056183" cy="705.1352692074644" r="7.493884762770112" fill="#8C7DE0" opacity="0.5976375036221704"/>
  <circle cx="958.8691005118451" cy="877.973056557736" r="5.524974507238298" fill="#8C7DE0" opacity="0.3708263773459946"/>
  <circle cx="647.9477004081614" cy="185.08987397809784" r="6.49698613115393" fill="#8C7DE0" opacity="0.4142136614477101"/>
  <circle cx="621.8392572149722" cy="621.6072657552631" r="6.092187419503777" fill="#8C7DE0" opacity="0.2120562558038865"/>
  <circle cx="1489.6932683764317" cy="656.5402593340388" r="5.425736930589739" fill="#8C7DE0" opacity="0.31658757887155414"/>
  <circle cx="670.1556182915467" cy="776.09641659646" r="4.9458242915291235" fill="#8C7DE0" opacity="0.2083287187441084"/>
  <circle cx="816.0914615156662" cy="703.8682332098949" r="4.812067738268267" fill="#8C7DE0" opacity="0.29396314266590257"/>
  <circle cx="899.0663342213797" cy="899.3326464651419" r="3.0081305113989494" fill="#8C7DE0" opacity="0.3528236725736681"/>
  <circle cx="1051.9471567701069" cy="812.914014510996" r="5.256240927197452" fill="#8C7DE0" opacity="0.20560969698471965"/>
  <circle cx="903.5954855329624" cy="966.4584668439587" r="5.419221008083516" fill="#8C7DE0" opacity="0.5408480325947664"/>
  <circle cx="1369.9907381139092" cy="1021.0195655397517" r="3.4636953217929958" fill="#8C7DE0" opacity="0.5413446065947367"/>
  <circle cx="1453.9929795244327" cy="882.951806967751" r="8.53510651303531" fill="#8C7DE0" opacity="0.35042597578440327"/>
  <circle cx="288.94869761708793" cy="286.25990768869957" r="8.865247959434367" fill="#8C7DE0" opacity="0.32570469620485004"/>
  <circle cx="149.5389572060229" cy="950.537759859971" r="3.4844906275977503" fill="#8C7DE0" opacity="0.31732510254404495"/>
  <circle cx="355.5721781394391" cy="958.7162211924594" r="8.347032433094562" fill="#8C7DE0" opacity="0.22440834300659962"/>
  <circle cx="106.63815529771905" cy="894.0762015727018" r="4.392817435768851" fill="#8C7DE0" opacity="0.22446050186359173"/>
  <circle cx="487.668493309727" cy="187.98375575886723" r="3.9544082114105974" fill="#8C7DE0" opacity="0.3857782044569769"/>
  <circle cx="503.04378639153015" cy="974.8954477555907" r="4.506539503133351" fill="#8C7DE0" opacity="0.46718516351805606"/>
  <text x="80" y="100" fill="#5C6478" font-family="ui-monospace, Menlo, monospace" font-size="22" letter-spacing="3">PREVIEW · COMMUNITY WEATHER REPORT</text>
  <text x="80" y="1140" fill="#5C6478" font-family="Inter, system-ui, sans-serif" font-size="22">Live interactive view available on desktop · mindspaceos.com</text>
</svg>