<svg xmlns="http://www.w3.org/2000/svg" viewBox="0 0 1600 1200" preserveAspectRatio="xMidYMid meet">
  <rect width="1600" height="1200" fill="#0B0E13"/>
  <circle cx="1003.8456378978102" cy="772.3016611042309" r="8.083366727418495" fill="#3FD8B0" opacity="0.3572562719270494"/>
  <circle cx="1283.2514461813844" cy="154.19398155263826" r="8.714456439225302" fill="#3FD8B0" opacity="0.3947100427913412"/>
  <circle cx="474.6078385432607" cy="835.5646831455444" r="4.1415701279121535" fill="#3FD8B0" opacity="0.44906108022252506"/>
  <circle cx="975.1794203171083" cy="308.8491158698427" r="6.350473891454896" fill="#3FD8B0" opacity="0.5476780171221182"/>
  <circle cx="1249.2875710315498" cy="232.119059376263" r="6.726796641465053" fill="#3FD8B0" opacity="0.353050084722626"/>
  <circle cx="1138.3343896102608" cy="611.7717189335027" r="5.655496581798151" fill="#3FD8B0" opacity="0.2680446553220364"/>
  <circle cx="1498.8123300720777" cy="638.1854692184171" r="7.6329136064637835" fill="#3FD8B0" opacity="0.5285469347977352"/>
  <circle cx="792.0257540181196" cy="175.44007355202416" r="4.288013441282505" fill="#3FD8B0" opacity="0.4474210589320833"/>
  <circle cx="1187.2143749822783" cy="1049.3625626660605" r="5.221422247156081" fill="#3FD8B0" opacity="0.44703670722401906"/>
  <circle cx="132.17776759879322" cy="301.4378097032723" r="3.1098991620973404" fill="#3FD8B0" opacity="0.586211292550403"/>
  <circle cx="1204.5975827442228" cy="858.4487521078493" r="5.12055326814677" fill="#3FD8B0" opacity="0.37565335697941993"/>
  <circle cx="763.4109325311631" cy="1007.8695762031307" r="8.65684210154657" fill="#3FD8B0" opacity="0.47448085154544734"/>
  <circle cx="262.95570942309223" cy="495.549074633288" r="8.715388690209064" fill="#3FD8B0" opacity="0.5566663961545733"/>
  <circle cx="873.7482842256445" cy="163.52363535642903" r="8.499598067281132" fill="#3FD8B0" opacity="0.26942032670131955"/>
  <circle cx="1173.2184906211828" cy="214.86804239230776" r="4.9556676295628606" fill="#3FD8B0" opacity="0.3729926675017345"/>
  <circle cx="526.7897168731238" cy="598.9916365312074" r="8.07345050330005" fill="#3FD8B0" opacity="0.45232110149013555"/>
  <circle cx="1177.4796446819814" cy="617.6557662482078" r="5.203514183023165" fill="#3FD8B0" opacity="0.24912170254507218"/>
  <circle cx="276.67566915852785" cy="787.8330095181824" r="4.396607410275559" fill="#3FD8B0" opacity="0.3680543373262337"/>
  <circle cx="165.0609616116205" cy="525.2027437747289" r="8.571071541673875" fill="#3FD8B0" opacity="0.5884772061688701"/>
  <circle cx="851.0668581230858" cy="164.561332967892" r="7.25659076386113" fill="#3FD8B0" opacity="0.45426249858212003"/>
  <circle cx="396.0485196811216" cy="618.6056330989702" r="4.107224901204807" fill="#3FD8B0" opacity="0.25742175854440236"/>
  <circle cx="194.72314675229956" cy="1037.6653562330052" r="5.6287912941362865" fill="#3FD8B0" opacity="0.40898003762973917"/>
  <circle cx="943.3913720546425" cy="936.8293137540461" r="7.411321860973162" fill="#3FD8B0" opacity="0.41908406909698925"/>
  <circle cx="776.6911046739752" cy="740.5731061544158" r="8.12438966769745" fill="#3FD8B0" opacity="0.4369882067579166"/>
  <circle cx="783.9045360851425" cy="450.6734576208371" r="8.206954453035875" fill="#3FD8B0" opacity="0.5808088526307571"/>
  <circle cx="195.00521805899075" cy="511.84936334356365" r="7.063392773999127" fill="#3FD8B0" opacity="0.2927412004972856"/>
  <circle cx="912.0095746093931" cy="274.01682062186376" r="7.110826560331988" fill="#3FD8B0" opacity="0.4857741942213846"/>
  <circle cx="562.9312064547198" cy="384.4601113617041" r="8.906280694780225" fill="#3FD8B0" opacity="0.4155254467153316"/>
  <circle cx="626.9371412658428" cy="861.8286759683036" r="7.252376405425541" fill="#3FD8B0" opacity="0.21746351499715844"/>
  <circle cx="532.593002302307" cy="818.1161617942525" r="4.682052407875397" fill="#3FD8B0" opacity="0.3038265577956085"/>
  <circle cx="413.7715736280606" cy="476.3544726179382" r="7.80966328971526" fill="#3FD8B0" opacity="0.5056984577850798"/>
  <circle cx="932.0066242319248" cy="267.1330847583813" r="4.764744004866168" fill="#3FD8B0" opacity="0.5831698714059348"/>
  <circle cx="205.6586257713409" cy="913.6157854274959" r="5.482142428414915" fill="#3FD8B0" opacity="0.2519220623958118"/>
  <circle cx="500.7913838204814" cy="697.6460286121595" r="6.471182066713228" fill="#3FD8B0" opacity="0.20312090183405968"/>
  <circle cx="1182.3499247835105" cy="825.4641312104858" r="5.512964081817584" fill="#3FD8B0" opacity="0.2578961637019585"/>
  <circle cx="481.4598399877658" cy="1015.9896528146737" r="5.166890814635695" fill="#3FD8B0" opacity="0.4512131234411751"/>
  <circle cx="224.8055793948381" cy="994.6835455049397" r="8.173030062068264" fill="#3FD8B0" opacity="0.32455298365268404"/>
  <circle cx="115.42150943459433" cy="539.3782288236278" r="4.27600432852147" fill="#3FD8B0" opacity="0.3101536808181169"/>
  <circle cx="315.42938686084955" cy="339.78606443417664" r="6.116864624584526" fill="#3FD8B0" opacity="0.25322263595303984"/>
  <circle cx="1033.918913218181" cy="838.9510589274756" r="7.89765767504349" fill="#3FD8B0" opacity="0.5586570722129629"/>
  <circle cx="970.8027519224274" cy="489.83900449118596" r="7.9650651261444345" fill="#3FD8B0" opacity="0.2468419876934511"/>
  <circle cx="214.19918496184405" cy="651.1703821016062" r="3.7672424767934634" fill="#3FD8B0" opacity="0.5548936033765925"/>
  <circle cx="305.5270502571756" cy="412.82972023588087" r="8.156518006698606" fill="#3FD8B0" opacity="0.3860527459204005"/>
  <circle cx="468.3842504490373" cy="845.3635393486805" r="7.212661176463078" fill="#3FD8B0" opacity="0.3541814842920266"/>
  <circle cx="941.6840313739638" cy="494.37885807152236" r="3.8712879638795257" fill="#3FD8B0" opacity="0.5548049762460882"/>
  <circle cx="549.3728649389749" cy="234.00095541726006" r="5.280544383013341" fill="#3FD8B0" opacity="0.563045388262263"/>
  <circle cx="891.0446572907825" cy="984.6031935138501" r="3.2328897384565987" fill="#3FD8B0" opacity="0.35777437695325753"/>
  <circle cx="473.85537932046316" cy="157.0203205652176" r="5.557239646240414" fill="#3FD8B0" opacity="0.5675297513349092"/>
  <circle cx="596.9784414654792" cy="224.9059456790358" r="4.028473657494357" fill="#3FD8B0" opacity="0.5294181310543146"/>
  <circle cx="456.44552790252186" cy="207.91753082326227" r="6.024176941336213" fill="#3FD8B0" opacity="0.508954350052325"/>
  <circle cx="731.4338809251259" cy="192.1865064087732" r="6.582039983094712" fill="#3FD8B0" opacity="0.5265363819558433"/>
  <circle cx="753.2967026805063" cy="151.39192227633472" r="3.028646322406715" fill="#3FD8B0" opacity="0.3864278059554064"/>
  <circle cx="521.887198008988" cy="671.7219128597579" r="3.224392043846196" fill="#3FD8B0" opacity="0.21375935473065277"/>
  <circle cx="311.59231881254476" cy="866.9733413505145" r="4.030007440682848" fill="#3FD8B0" opacity="0.26346124571211893"/>
  <circle cx="929.8905865096795" cy="359.7660741168837" r="6.9542455809021275" fill="#3FD8B0" opacity="0.543723930587044"/>
  <circle cx="506.6827430798615" cy="171.2837139619818" r="3.203315212349536" fill="#3FD8B0" opacity="0.35355789305722335"/>
  <circle cx="643.1070629077343" cy="681.2463197275713" r="8.939108159042197" fill="#3FD8B0" opacity="0.48174814547775074"/>
  <circle cx="618.5891545614373" cy="223.19780517442564" r="5.6224831209402995" fill="#3FD8B0" opacity="0.37191133894035067"/>
  <circle cx="212.95587019408" cy="214.68269447351648" r="5.992261987414171" fill="#3FD8B0" opacity="0.4396585920221048"/>
  <circle cx="690.341874634343" cy="964.0099971499394" r="7.06892690589766" fill="#3FD8B0" opacity="0.3433942351173681"/>
  <circle cx="104.8612534245122" cy="915.4383491543031" r="3.883719197288522" fill="#3FD8B0" opacity="0.43175437010343143"/>
  <circle cx="622.4738960208198" cy="637.8057633512598" r="8.30642596389312" fill="#3FD8B0" opacity="0.5908896719133442"/>
  <circle cx="1327.0723053188967" cy="542.9511801360932" r="4.305689133889656" fill="#3FD8B0" opacity="0.457624625520351"/>
  <circle cx="1293.1405069580524" cy="374.9435936526357" r="8.152085239128064" fill="#3FD8B0" opacity="0.28483456715648425"/>
  <circle cx="720.075674347496" cy="877.2987634902329" r="8.252158908870175" fill="#3FD8B0" opacity="0.3793668441916078"/>
  <circle cx="928.1583107933307" cy="967.9512317042006" r="4.534472640821166" fill="#3FD8B0" opacity="0.3636275651697506"/>
  <circle cx="915.4825726583757" cy="752.7284509255662" r="7.067712004910103" fill="#3FD8B0" opacity="0.26990643334747955"/>
  <circle cx="779.6991331836759" cy="493.9963308449598" r="7.291257381053531" fill="#3FD8B0" opacity="0.2451406855465618"/>
  <circle cx="1304.8676078707426" cy="922.0022076886495" r="6.950655473265512" fill="#3FD8B0" opacity="0.36435533058179026"/>
  <circle cx="1426.5442466686754" cy="162.95803005843828" r="7.323535885495147" fill="#3FD8B0" opacity="0.2724870960599597"/>
  <circle cx="1280.2390050685028" cy="835.8895786135397" r="7.53931534307681" fill="#3FD8B0" opacity="0.2895174615078382"/>
  <circle cx="798.6287284097908" cy="192.86548648487724" r="4.750737350158268" fill="#3FD8B0" opacity="0.5476476477439591"/>
  <circle cx="795.1976406181776" cy="673.1897817553568" r="4.212070116239792" fill="#3FD8B0" opacity="0.39121774975775414"/>
  <circle cx="157.13669895198632" cy="666.9659493545996" r="6.388092068798661" fill="#3FD8B0" opacity="0.4203127649636519"/>
  <circle cx="709.9230794448848" cy="492.6529006772475" r="8.829495164439383" fill="#3FD8B0" opacity="0.4939495157322326"/>
  <circle cx="1078.4351048137282" cy="754.5727707078191" r="8.322629196646657" fill="#3FD8B0" opacity="0.5940563061950446"/>
  <circle cx="997.5014714974176" cy="811.5820767386589" r="5.331876384014257" fill="#3FD8B0" opacity="0.3883599593974729"/>
  <circle cx="742.7697901936277" cy="273.69502333539504" r="3.1170525467467547" fill="#3FD8B0" opacity="0.580709783074311"/>
  <circle cx="178.40950036760142" cy="270.99722458407456" r="7.3593410861593656" fill="#3FD8B0" opacity="0.21660802684808778"/>
  <circle cx="832.6014159823508" cy="583.1575464211714" r="7.384695963490789" fill="#3FD8B0" opacity="0.3187409184639372"/>
  <text x="80" y="100" fill="#5C6478" font-family="ui-monospace, Menlo, monospace" font-size="22" letter-spacing="3">PREVIEW · COMMUNITY DYNAMICS</text>
  <text x="80" y="1140" fill="#5C6478" font-family="Inter, system-ui, sans-serif" font-size="22">Live interactive view available on desktop · mindspaceos.com</text>
</svg>