<svg xmlns="http://www.w3.org/2000/svg" viewBox="0 0 1600 1200" preserveAspectRatio="xMidYMid meet">
  <rect width="1600" height="1200" fill="#0B0E13"/>
  <circle cx="496.6854679587354" cy="950.5174065847268" r="8.859508979785552" fill="#3FD8B0" opacity="0.45076049450873723"/>
  <circle cx="1146.737724889609" cy="508.2606711831327" r="6.94055517753187" fill="#3FD8B0" opacity="0.5117812652699081"/>
  <circle cx="894.2806949939841" cy="460.0265683301606" r="6.086516827255846" fill="#3FD8B0" opacity="0.5449319853202081"/>
  <circle cx="946.6737128300512" cy="719.1957492186635" r="8.339436183393513" fill="#3FD8B0" opacity="0.5141093513353447"/>
  <circle cx="1205.8520591050064" cy="194.69065124916682" r="8.654958642403795" fill="#3FD8B0" opacity="0.3051497814672979"/>
  <circle cx="726.1995378761961" cy="241.77941728263818" r="3.9900307133457216" fill="#3FD8B0" opacity="0.5930248163057439"/>
  <circle cx="317.7795109144208" cy="823.8889636288244" r="6.316789688476535" fill="#3FD8B0" opacity="0.30826713878290435"/>
  <circle cx="294.4867476423493" cy="969.2433602535411" r="7.096613210729974" fill="#3FD8B0" opacity="0.25578638994676006"/>
  <circle cx="647.0445486106765" cy="432.3278289251125" r="5.33245349619847" fill="#3FD8B0" opacity="0.28120484355778075"/>
  <circle cx="208.95681017493453" cy="286.51757523193925" r="3.7065840972064" fill="#3FD8B0" opacity="0.34516803698600407"/>
  <circle cx="574.8561751735656" cy="320.50654945695135" r="8.550001531108709" fill="#3FD8B0" opacity="0.5279555822427286"/>
  <circle cx="468.6877596947585" cy="675.2268466760936" r="8.221062923220348" fill="#3FD8B0" opacity="0.28449480490940293"/>
  <circle cx="348.6211396336147" cy="785.1006052397652" r="4.323899482392675" fill="#3FD8B0" opacity="0.23886082545263132"/>
  <circle cx="1348.0772584876547" cy="973.3455872856133" r="7.441914583265315" fill="#3FD8B0" opacity="0.4000643655171162"/>
  <circle cx="249.27730703597123" cy="776.233380494529" r="8.076629480183943" fill="#3FD8B0" opacity="0.48811167830043156"/>
  <circle cx="722.5700013457788" cy="880.7319071938733" r="3.556751248793615" fill="#3FD8B0" opacity="0.3051457694382702"/>
  <circle cx="534.0041060103333" cy="678.6446193115366" r="7.719645069070708" fill="#3FD8B0" opacity="0.44864281418279545"/>
  <circle cx="642.9433692776537" cy="1049.7724428692022" r="4.028743540769515" fill="#3FD8B0" opacity="0.2268241295833119"/>
  <circle cx="209.77357104812728" cy="503.1177928472885" r="8.800422569152277" fill="#3FD8B0" opacity="0.24580652981380072"/>
  <circle cx="627.1661944708208" cy="753.1149571993398" r="8.18505841909973" fill="#3FD8B0" opacity="0.23949896990120065"/>
  <circle cx="660.1719720778686" cy="410.10574016299887" r="8.059171893505564" fill="#3FD8B0" opacity="0.30355943969958904"/>
  <circle cx="1247.1721617883911" cy="645.903659750015" r="6.367276543887698" fill="#3FD8B0" opacity="0.5228233240998845"/>
  <circle cx="532.4296328185849" cy="881.8390473138247" r="3.0921203703718803" fill="#3FD8B0" opacity="0.291929765244628"/>
  <circle cx="820.5299642738131" cy="904.8866382384526" r="8.391104722830686" fill="#3FD8B0" opacity="0.4106617313685055"/>
  <circle cx="286.2523037888044" cy="538.5721339467827" r="3.372691342883504" fill="#3FD8B0" opacity="0.5542255647162979"/>
  <circle cx="1279.4364121588696" cy="673.2123576192384" r="6.687430048847221" fill="#3FD8B0" opacity="0.4921604967648349"/>
  <circle cx="1181.1041637184192" cy="694.1442378775923" r="3.7980519462836386" fill="#3FD8B0" opacity="0.5560488870519007"/>
  <circle cx="1123.9921417540995" cy="730.1754346635199" r="8.454344961484132" fill="#3FD8B0" opacity="0.35329357081450513"/>
  <circle cx="386.70528449889684" cy="196.91702372600275" r="3.3144845041508355" fill="#3FD8B0" opacity="0.21485967816696197"/>
  <circle cx="951.1243905007693" cy="675.568667161817" r="3.755389583015961" fill="#3FD8B0" opacity="0.24025925034668952"/>
  <circle cx="862.4523134988211" cy="319.35592548055524" r="4.262310903369747" fill="#3FD8B0" opacity="0.23770008642975593"/>
  <circle cx="1334.8334690100498" cy="623.1218753138194" r="3.320369780869707" fill="#3FD8B0" opacity="0.4730508875043881"/>
  <circle cx="417.23803015733824" cy="237.80098227067785" r="8.104070650150616" fill="#3FD8B0" opacity="0.5635483819211572"/>
  <circle cx="1276.9249510407408" cy="777.9057259285631" r="4.419587623080415" fill="#3FD8B0" opacity="0.4432479898726187"/>
  <circle cx="137.9862886512777" cy="858.4481475753228" r="6.164273702869036" fill="#3FD8B0" opacity="0.5134113084675629"/>
  <circle cx="717.6143106342844" cy="861.6353751451792" r="6.535679464339993" fill="#3FD8B0" opacity="0.5359986565502022"/>
  <circle cx="1107.4426134411065" cy="744.8087926240061" r="6.631748590477759" fill="#3FD8B0" opacity="0.5564674302755548"/>
  <circle cx="1072.4032321633092" cy="404.86544417936113" r="4.028875938637816" fill="#3FD8B0" opacity="0.3985599570998954"/>
  <circle cx="907.5084316991467" cy="485.40408996493477" r="8.142470664303632" fill="#3FD8B0" opacity="0.5841160509472036"/>
  <circle cx="1146.3052508943574" cy="803.4261292882317" r="4.083005303698655" fill="#3FD8B0" opacity="0.20637390985812495"/>
  <circle cx="639.7994514646039" cy="687.0400422006248" r="8.061035283448952" fill="#3FD8B0" opacity="0.4994486303239737"/>
  <circle cx="328.26661592049595" cy="701.7715976684556" r="4.505861490207336" fill="#3FD8B0" opacity="0.3233380113474157"/>
  <circle cx="221.260301359709" cy="758.3461361047606" r="8.069134990023372" fill="#3FD8B0" opacity="0.3783229841635026"/>
  <circle cx="1178.9968976768175" cy="695.5546803012605" r="8.971629114806298" fill="#3FD8B0" opacity="0.2924077210483558"/>
  <circle cx="744.8481515155815" cy="445.7050793531572" r="6.7002609262830255" fill="#3FD8B0" opacity="0.5104210405313312"/>
  <circle cx="1486.477436088592" cy="918.9229003359038" r="8.687076211699429" fill="#3FD8B0" opacity="0.50964469578863"/>
  <circle cx="392.3948777771102" cy="280.0564358389013" r="7.9428046441489455" fill="#3FD8B0" opacity="0.3250585865368133"/>
  <circle cx="909.9648148520325" cy="1004.5789591615787" r="5.8216067238430655" fill="#3FD8B0" opacity="0.2532689410029964"/>
  <circle cx="866.272791281122" cy="480.6054927801282" r="8.863561504227135" fill="#3FD8B0" opacity="0.560722649651012"/>
  <circle cx="1042.5770957629393" cy="694.4592276195184" r="7.7749829215326125" fill="#3FD8B0" opacity="0.3513615224008354"/>
  <circle cx="870.3809758739302" cy="457.322008478061" r="8.96635805017397" fill="#3FD8B0" opacity="0.5285488835995609"/>
  <circle cx="1163.9136914713997" cy="286.9589794464215" r="4.366055394190093" fill="#3FD8B0" opacity="0.2939816535625191"/>
  <circle cx="489.1002365443851" cy="197.13601068544307" r="4.410359474977084" fill="#3FD8B0" opacity="0.5689244682611192"/>
  <circle cx="1183.1634904152813" cy="710.1243898445972" r="8.052136343353233" fill="#3FD8B0" opacity="0.4031713863561541"/>
  <circle cx="1208.5361565162702" cy="922.809495704201" r="8.819760497177354" fill="#3FD8B0" opacity="0.4652879972635221"/>
  <circle cx="904.5317249592495" cy="607.7071368712112" r="6.294434034459931" fill="#3FD8B0" opacity="0.3179817805321923"/>
  <circle cx="1151.3595151020993" cy="978.37744210995" r="7.4703866833983765" fill="#3FD8B0" opacity="0.5601074552892731"/>
  <circle cx="1080.9725390270135" cy="221.40622493187368" r="7.8557177111743535" fill="#3FD8B0" opacity="0.3415827039616568"/>
  <circle cx="619.2740334952528" cy="609.4788758910593" r="7.886930501364326" fill="#3FD8B0" opacity="0.5330586208205694"/>
  <circle cx="1387.6896746486111" cy="971.1868117613049" r="5.502780966934264" fill="#3FD8B0" opacity="0.5978218312888777"/>
  <circle cx="1152.349574653374" cy="359.6733234820431" r="8.201563703250983" fill="#3FD8B0" opacity="0.41016103640266577"/>
  <circle cx="778.4175891172783" cy="653.0928746942714" r="5.051757318755006" fill="#3FD8B0" opacity="0.5945056984048724"/>
  <circle cx="1286.8963991125906" cy="619.0563038387584" r="7.418887766767474" fill="#3FD8B0" opacity="0.5033204547607615"/>
  <circle cx="266.80227826915507" cy="550.2076518326376" r="6.888715118374636" fill="#3FD8B0" opacity="0.34203393736071885"/>
  <circle cx="188.05731242870928" cy="237.00697473905973" r="3.684190810416336" fill="#3FD8B0" opacity="0.25799708972966534"/>
  <circle cx="464.1985024347143" cy="660.4382118401011" r="4.276630566863011" fill="#3FD8B0" opacity="0.21760204658745816"/>
  <circle cx="1348.333786659629" cy="525.5189741300705" r="8.322432108725813" fill="#3FD8B0" opacity="0.4652545034917105"/>
  <circle cx="388.60665434056045" cy="767.7453730404856" r="5.940359043001625" fill="#3FD8B0" opacity="0.562737142088658"/>
  <circle cx="1224.226556464082" cy="514.0893021260752" r="7.631897046141174" fill="#3FD8B0" opacity="0.3415430532118947"/>
  <circle cx="910.7183289928897" cy="582.607559990852" r="3.8180557279733325" fill="#3FD8B0" opacity="0.270069716348942"/>
  <circle cx="1282.7288118513457" cy="717.9693817010475" r="6.6098198103092916" fill="#3FD8B0" opacity="0.5056770310101384"/>
  <circle cx="1497.3852287017894" cy="672.9270807194281" r="3.558391920039157" fill="#3FD8B0" opacity="0.49602481091403205"/>
  <circle cx="1017.4509135782914" cy="862.7439178721107" r="5.992583565838674" fill="#3FD8B0" opacity="0.36709527371143247"/>
  <circle cx="953.7284076967263" cy="331.13180327692226" r="8.798470507367366" fill="#3FD8B0" opacity="0.3852658604175533"/>
  <circle cx="1257.473307869394" cy="694.3878203339932" r="6.965766102899558" fill="#3FD8B0" opacity="0.5692659794769095"/>
  <circle cx="213.33675952107612" cy="281.73507201688426" r="8.043448378137395" fill="#3FD8B0" opacity="0.3414845781138303"/>
  <circle cx="940.2802597879017" cy="471.7591448770617" r="5.203047483768918" fill="#3FD8B0" opacity="0.23616605128599708"/>
  <circle cx="1495.3466409724538" cy="185.27221616354993" r="5.562094399226526" fill="#3FD8B0" opacity="0.23254210716920523"/>
  <circle cx="1346.9240023317739" cy="1026.343242369305" r="4.574238087319616" fill="#3FD8B0" opacity="0.2609922702243088"/>
  <circle cx="434.88505928123715" cy="203.81134456588393" r="7.1028961767070165" fill="#3FD8B0" opacity="0.34206709762577514"/>
  <text x="80" y="100" fill="#5C6478" font-family="ui-monospace, Menlo, monospace" font-size="22" letter-spacing="3">PREVIEW · COMMUNITY DYNAMICS</text>
  <text x="80" y="1140" fill="#5C6478" font-family="Inter, system-ui, sans-serif" font-size="22">Live interactive view available on desktop · mindspaceos.com</text>
</svg>