<svg xmlns="http://www.w3.org/2000/svg" viewBox="0 0 1600 1200" preserveAspectRatio="xMidYMid meet">
  <rect width="1600" height="1200" fill="#0B0E13"/>
  <circle cx="623.9285785201123" cy="752.7740827905913" r="5.670567169648093" fill="#8C7DE0" opacity="0.36425179012181386"/>
  <circle cx="355.05694114698224" cy="722.3353274613058" r="4.283306643412606" fill="#8C7DE0" opacity="0.4511187174779902"/>
  <circle cx="1309.909583541611" cy="527.5439954452331" r="5.206973725334607" fill="#8C7DE0" opacity="0.5903857612176262"/>
  <circle cx="293.6166673991545" cy="510.28447909828475" r="3.7093243767733517" fill="#8C7DE0" opacity="0.2297035417011756"/>
  <circle cx="600.8167594453664" cy="559.9456323476638" r="4.811831748884922" fill="#8C7DE0" opacity="0.5259173350896491"/>
  <circle cx="172.14627176326536" cy="457.5864539335703" r="8.852643471154675" fill="#8C7DE0" opacity="0.2970997126651018"/>
  <circle cx="324.3275528915652" cy="353.5812931641807" r="3.8993662931847375" fill="#8C7DE0" opacity="0.3020972428615987"/>
  <circle cx="1460.5541078649442" cy="390.33075477236054" r="8.269991655766269" fill="#8C7DE0" opacity="0.4563587189823216"/>
  <circle cx="259.5402588453479" cy="660.6362868143665" r="5.0330163389874425" fill="#8C7DE0" opacity="0.28420252546297275"/>
  <circle cx="672.0321255237894" cy="264.83496931937157" r="7.6036452400684835" fill="#8C7DE0" opacity="0.37197373115217447"/>
  <circle cx="601.132788983417" cy="1018.4151392624157" r="8.421656582374506" fill="#8C7DE0" opacity="0.2718000526811394"/>
  <circle cx="876.3100373860774" cy="757.4921303974202" r="5.525295704213365" fill="#8C7DE0" opacity="0.5515729022118517"/>
  <circle cx="444.78688165057434" cy="874.9389835723025" r="6.760083902589199" fill="#8C7DE0" opacity="0.4960175430706901"/>
  <circle cx="1374.1609984216439" cy="710.119463584566" r="7.241984197834201" fill="#8C7DE0" opacity="0.2045845585412045"/>
  <circle cx="953.8601911938936" cy="980.2072529768087" r="3.0217068966002105" fill="#8C7DE0" opacity="0.49289094651755594"/>
  <circle cx="1295.34668097088" cy="800.5291178936658" r="5.397514359529222" fill="#8C7DE0" opacity="0.3780369607154437"/>
  <circle cx="789.6827359301566" cy="257.3563079916878" r="6.9566844336851155" fill="#8C7DE0" opacity="0.5609165341856697"/>
  <circle cx="428.6986857213617" cy="1022.5533989056752" r="5.300076233323087" fill="#8C7DE0" opacity="0.45726271843755173"/>
  <circle cx="800.2465469626767" cy="599.555757222768" r="7.606906579879125" fill="#8C7DE0" opacity="0.4969290266457998"/>
  <circle cx="286.81324541603226" cy="339.7255894057817" r="5.310252755795499" fill="#8C7DE0" opacity="0.3413198018595893"/>
  <circle cx="951.7794480503294" cy="657.035170394807" r="3.726247130943822" fill="#8C7DE0" opacity="0.44367490209867744"/>
  <circle cx="424.3241358351966" cy="830.1468782194262" r="4.892331838206663" fill="#8C7DE0" opacity="0.2940959777591168"/>
  <circle cx="301.9507641766178" cy="150.33024396814366" r="5.216426952910901" fill="#8C7DE0" opacity="0.26513593032047844"/>
  <circle cx="114.92815526386514" cy="942.6280392981062" r="6.631564717480059" fill="#8C7DE0" opacity="0.403053425708866"/>
  <circle cx="414.21682696247916" cy="423.2935979552229" r="7.612898603357822" fill="#8C7DE0" opacity="0.24469073227947757"/>
  <circle cx="232.88117052956827" cy="494.3639225477287" r="8.936344756646598" fill="#8C7DE0" opacity="0.3322601214271975"/>
  <circle cx="722.8603579343463" cy="818.6399038407379" r="7.652448918671097" fill="#8C7DE0" opacity="0.35554271251738634"/>
  <circle cx="617.1114653912" cy="946.8548877644722" r="3.161998078619792" fill="#8C7DE0" opacity="0.28232297020729585"/>
  <circle cx="255.44217258428074" cy="595.0655226223396" r="7.045969824293481" fill="#8C7DE0" opacity="0.5274471289776101"/>
  <circle cx="194.79613218231214" cy="987.28471576716" r="6.003940699648836" fill="#8C7DE0" opacity="0.504171355936992"/>
  <circle cx="978.6838098623597" cy="683.8101225151187" r="5.995058501205043" fill="#8C7DE0" opacity="0.5591779257659069"/>
  <circle cx="284.4859869821755" cy="867.5808226914166" r="4.212286854443514" fill="#8C7DE0" opacity="0.3438112563800735"/>
  <circle cx="1381.5589062024133" cy="544.2218757230286" r="5.324953775698994" fill="#8C7DE0" opacity="0.37182071188580884"/>
  <circle cx="578.031526853322" cy="408.1818708862183" r="7.576552294281311" fill="#8C7DE0" opacity="0.48834796897041904"/>
  <circle cx="385.1893230684847" cy="402.1225826802839" r="7.851556591967395" fill="#8C7DE0" opacity="0.3713163325423855"/>
  <circle cx="1327.613087549708" cy="515.0144127425368" r="5.223976027098466" fill="#8C7DE0" opacity="0.2537439874062354"/>
  <circle cx="425.1625291690527" cy="208.48718095980811" r="7.747105036010653" fill="#8C7DE0" opacity="0.45685069529273514"/>
  <circle cx="1315.4032668000852" cy="224.11119833273796" r="4.9158780125319375" fill="#8C7DE0" opacity="0.4316950233436047"/>
  <circle cx="989.6617847889297" cy="679.0419774838434" r="6.858289406523918" fill="#8C7DE0" opacity="0.5275012916861244"/>
  <circle cx="961.0141839123635" cy="764.5560854740747" r="5.27473520495428" fill="#8C7DE0" opacity="0.21872214157756123"/>
  <circle cx="409.0179742496766" cy="484.48449146581" r="5.319283261848299" fill="#8C7DE0" opacity="0.4647835054715615"/>
  <circle cx="1496.6606723290572" cy="992.8360882650958" r="6.417809131699967" fill="#8C7DE0" opacity="0.3254265871213625"/>
  <circle cx="1278.2901674711577" cy="622.2688799985056" r="8.083166268902838" fill="#8C7DE0" opacity="0.3353247180927509"/>
  <circle cx="996.7027961156831" cy="271.4342068463432" r="8.329234874185211" fill="#8C7DE0" opacity="0.5959676378412606"/>
  <circle cx="756.8241784776958" cy="774.2596013425969" r="8.119929369462557" fill="#8C7DE0" opacity="0.23270256501833575"/>
  <circle cx="369.2029235482962" cy="956.1707230970168" r="6.38168210977379" fill="#8C7DE0" opacity="0.5941453235744483"/>
  <circle cx="1441.9038103757487" cy="153.82011280937" r="6.049699160483753" fill="#8C7DE0" opacity="0.240299110628389"/>
  <circle cx="594.588048336385" cy="419.2069951665462" r="3.3774483398799306" fill="#8C7DE0" opacity="0.27554366231237437"/>
  <circle cx="1399.9222290523692" cy="905.0516773844973" r="7.92378037810111" fill="#8C7DE0" opacity="0.5964758860758397"/>
  <circle cx="929.4303186252407" cy="936.4239738709678" r="3.4217965730253708" fill="#8C7DE0" opacity="0.4547550881790475"/>
  <circle cx="349.80572121701823" cy="551.9156085597454" r="5.919415096119964" fill="#8C7DE0" opacity="0.37226521389292216"/>
  <circle cx="438.21621647585283" cy="583.9361599109756" r="7.160222028979091" fill="#8C7DE0" opacity="0.41244760995758867"/>
  <circle cx="176.27398079786283" cy="336.453517872716" r="8.442072498030377" fill="#8C7DE0" opacity="0.5583899603037084"/>
  <circle cx="1469.2596377270331" cy="422.73273356747393" r="5.492139005069152" fill="#8C7DE0" opacity="0.4732448833349905"/>
  <circle cx="1264.3818008332244" cy="726.9570923780219" r="4.965173104349228" fill="#8C7DE0" opacity="0.4449991902398462"/>
  <circle cx="1457.188642280663" cy="509.1050874829281" r="6.446982658781852" fill="#8C7DE0" opacity="0.4312072468568841"/>
  <circle cx="1374.3474101158047" cy="1031.2384308810124" r="8.997160379707319" fill="#8C7DE0" opacity="0.2725758633081514"/>
  <circle cx="1170.7177758686269" cy="768.4928576010299" r="7.6668124214630975" fill="#8C7DE0" opacity="0.4232071351559919"/>
  <circle cx="1154.0138664177916" cy="796.7340204031598" r="7.054593700049147" fill="#8C7DE0" opacity="0.33708683489167424"/>
  <circle cx="1285.8956569114127" cy="303.06676385532296" r="8.824272427188676" fill="#8C7DE0" opacity="0.2234499387523481"/>
  <circle cx="151.98249687459926" cy="962.9682056454405" r="5.075706990958233" fill="#8C7DE0" opacity="0.47497234648758224"/>
  <circle cx="1438.1152415991235" cy="304.5325155211002" r="8.483840141349752" fill="#8C7DE0" opacity="0.4043564917106641"/>
  <circle cx="392.5868651749132" cy="333.7302995562304" r="6.751751398161392" fill="#8C7DE0" opacity="0.3202298567890806"/>
  <circle cx="308.58417855512687" cy="619.8781659350582" r="5.786376595631111" fill="#8C7DE0" opacity="0.464263646750895"/>
  <circle cx="203.94529908361903" cy="1026.1577942691324" r="7.392957199401737" fill="#8C7DE0" opacity="0.32729196905763325"/>
  <circle cx="237.1817027538999" cy="693.0834697023761" r="3.3346728454086523" fill="#8C7DE0" opacity="0.49033094308269076"/>
  <circle cx="1013.5841715771472" cy="285.0548266448309" r="4.105205069104317" fill="#8C7DE0" opacity="0.2995324237263444"/>
  <circle cx="590.1175736748871" cy="826.1382919947466" r="6.17152198761479" fill="#8C7DE0" opacity="0.38543549509375535"/>
  <circle cx="1320.5646819989684" cy="236.4530351652908" r="4.65195644421976" fill="#8C7DE0" opacity="0.3596553908204767"/>
  <circle cx="1305.7225202493598" cy="1007.5561117156881" r="7.50597591651859" fill="#8C7DE0" opacity="0.5005063511423864"/>
  <circle cx="682.379386667122" cy="746.525110282711" r="3.5404828773636177" fill="#8C7DE0" opacity="0.5771114975181615"/>
  <circle cx="898.9230675408371" cy="965.8880221772662" r="6.75030459284918" fill="#8C7DE0" opacity="0.4651136341944245"/>
  <circle cx="780.8821488423101" cy="652.807368869439" r="5.414389071604003" fill="#8C7DE0" opacity="0.20123948618831472"/>
  <circle cx="335.94353445476" cy="705.0657439266349" r="6.088353543576808" fill="#8C7DE0" opacity="0.5073217799015751"/>
  <circle cx="366.35113424586467" cy="851.2568093281382" r="7.922860012721162" fill="#8C7DE0" opacity="0.4486790914748204"/>
  <circle cx="718.3394586337059" cy="220.5567931470785" r="5.025123739812049" fill="#8C7DE0" opacity="0.5558009925766101"/>
  <circle cx="583.6455702246371" cy="496.7508154288266" r="3.2590071163941787" fill="#8C7DE0" opacity="0.3048729976077178"/>
  <circle cx="1458.106298922077" cy="403.0015097346734" r="3.6125769471173923" fill="#8C7DE0" opacity="0.4119217325850284"/>
  <circle cx="855.9969580001383" cy="579.0686274104974" r="8.159894351103414" fill="#8C7DE0" opacity="0.5220513061043144"/>
  <circle cx="1211.0873206943559" cy="559.7990989173513" r="8.0626369036557" fill="#8C7DE0" opacity="0.4204939427874537"/>
  <text x="80" y="100" fill="#5C6478" font-family="ui-monospace, Menlo, monospace" font-size="22" letter-spacing="3">PREVIEW · COMMUNITY WEATHER REPORT</text>
  <text x="80" y="1140" fill="#5C6478" font-family="Inter, system-ui, sans-serif" font-size="22">Live interactive view available on desktop · mindspaceos.com</text>
</svg>