<svg xmlns="http://www.w3.org/2000/svg" viewBox="0 0 1600 1200" preserveAspectRatio="xMidYMid meet">
  <rect width="1600" height="1200" fill="#0B0E13"/>
  <circle cx="831.2716617402566" cy="327.1834285977345" r="4.468889620595495" fill="#FF7A91" opacity="0.20537767703297588"/>
  <circle cx="1143.0618427498675" cy="825.3138712028662" r="3.2144869329686596" fill="#FF7A91" opacity="0.4840831989191726"/>
  <circle cx="866.5142377930449" cy="829.5478432569918" r="6.998234443255293" fill="#FF7A91" opacity="0.39516153768288925"/>
  <circle cx="989.1445922014145" cy="339.6127496175424" r="8.986224465255575" fill="#FF7A91" opacity="0.2522539101479415"/>
  <circle cx="294.1354496243289" cy="1000.4972526375333" r="6.168937207102648" fill="#FF7A91" opacity="0.3283882686791636"/>
  <circle cx="340.5607454659966" cy="428.10282619738086" r="6.533226689742353" fill="#FF7A91" opacity="0.5288058302754204"/>
  <circle cx="1357.2748758832342" cy="1000.5064603626524" r="8.110876182413765" fill="#FF7A91" opacity="0.5226047466596415"/>
  <circle cx="923.2178587987295" cy="337.91281999783155" r="7.307025489153603" fill="#FF7A91" opacity="0.4087795270907962"/>
  <circle cx="349.810144283952" cy="213.92237595447196" r="5.66470263395104" fill="#FF7A91" opacity="0.25044933629008237"/>
  <circle cx="644.5971102441997" cy="630.3896206999032" r="7.09135599517268" fill="#FF7A91" opacity="0.5454644671034369"/>
  <circle cx="324.34648218311327" cy="1029.5240223288404" r="4.770267674598196" fill="#FF7A91" opacity="0.5782297260517436"/>
  <circle cx="1482.9028581210516" cy="873.387454240122" r="4.092579691217688" fill="#FF7A91" opacity="0.5395754445423746"/>
  <circle cx="616.9997603423233" cy="803.6442778889407" r="3.0194691932550546" fill="#FF7A91" opacity="0.34182028248597734"/>
  <circle cx="1450.8324320968654" cy="678.7892710850015" r="3.2331443371251147" fill="#FF7A91" opacity="0.3257443815254844"/>
  <circle cx="1383.6743569342627" cy="304.0517699745809" r="7.19762095002361" fill="#FF7A91" opacity="0.4782864650382062"/>
  <circle cx="300.692368286244" cy="713.3205642541203" r="4.535216166742533" fill="#FF7A91" opacity="0.2508870007777792"/>
  <circle cx="462.7025068756453" cy="804.2826451750673" r="6.190417842019081" fill="#FF7A91" opacity="0.24844184760302454"/>
  <circle cx="278.7855868935772" cy="203.32898746443436" r="8.808260568314356" fill="#FF7A91" opacity="0.5811514875075703"/>
  <circle cx="1250.4395213658102" cy="879.068069412934" r="5.304387687050598" fill="#FF7A91" opacity="0.42213516889161695"/>
  <circle cx="1115.6369530297047" cy="413.591675863388" r="8.19408858981261" fill="#FF7A91" opacity="0.4360565186395864"/>
  <circle cx="666.5188368125481" cy="228.51532834375246" r="3.3567420215668253" fill="#FF7A91" opacity="0.3923320953693328"/>
  <circle cx="181.94921871411987" cy="812.7403507329404" r="7.529053294824304" fill="#FF7A91" opacity="0.3463876307112794"/>
  <circle cx="1212.2429705661295" cy="911.4041775614243" r="8.756762909964927" fill="#FF7A91" opacity="0.20274916529782472"/>
  <circle cx="589.679712140867" cy="920.480687841288" r="4.288962152865294" fill="#FF7A91" opacity="0.5868833590858025"/>
  <circle cx="996.1380648506655" cy="735.8319942873904" r="7.1504621778010256" fill="#FF7A91" opacity="0.5897963968664517"/>
  <circle cx="741.1595744347457" cy="964.4230937283991" r="8.162392121289368" fill="#FF7A91" opacity="0.4184407562294976"/>
  <circle cx="1308.1368878260766" cy="900.7964920220597" r="5.915520041255681" fill="#FF7A91" opacity="0.5442112664938235"/>
  <circle cx="735.0672435394795" cy="277.9118171123428" r="8.689260461366807" fill="#FF7A91" opacity="0.21007680011477042"/>
  <circle cx="1368.728983991111" cy="242.21509515532412" r="6.098306519783638" fill="#FF7A91" opacity="0.3538021080934466"/>
  <circle cx="857.145570703867" cy="504.9976104937576" r="5.456934589045129" fill="#FF7A91" opacity="0.49403246343146484"/>
  <circle cx="238.09224665998767" cy="229.03983945813633" r="4.7775287169707745" fill="#FF7A91" opacity="0.3739920711073219"/>
  <circle cx="1227.9802422674063" cy="262.2421588117816" r="8.630134199532344" fill="#FF7A91" opacity="0.5869465396623379"/>
  <circle cx="582.5098453686596" cy="234.94639402324907" r="6.80365339577798" fill="#FF7A91" opacity="0.30545544496134946"/>
  <circle cx="1062.519412535313" cy="238.89934103168264" r="5.543349103455413" fill="#FF7A91" opacity="0.4814627054960259"/>
  <circle cx="124.40741152411843" cy="461.31057961044473" r="3.8623956223817517" fill="#FF7A91" opacity="0.4083150850763132"/>
  <circle cx="1264.845328051949" cy="991.1872830153713" r="4.360250473862687" fill="#FF7A91" opacity="0.4164424120983012"/>
  <circle cx="899.41267840716" cy="647.2501786716625" r="8.410446864147804" fill="#FF7A91" opacity="0.23478777369870102"/>
  <circle cx="341.4849766434355" cy="195.18129733657798" r="4.641551543874558" fill="#FF7A91" opacity="0.5287993715597819"/>
  <circle cx="449.0080999181554" cy="390.96425710685094" r="6.356065717761921" fill="#FF7A91" opacity="0.5261038830619709"/>
  <circle cx="232.384251601389" cy="266.09232675507326" r="7.778126441671027" fill="#FF7A91" opacity="0.5104927622590458"/>
  <circle cx="110.17881268601269" cy="598.7411558298253" r="7.415965860906416" fill="#FF7A91" opacity="0.4852845887385622"/>
  <circle cx="1331.517492480025" cy="769.1797870020266" r="7.483159969747965" fill="#FF7A91" opacity="0.5809566014625899"/>
  <circle cx="685.7752819773659" cy="426.7476265215817" r="6.499329107582138" fill="#FF7A91" opacity="0.2999999947916616"/>
  <circle cx="409.4344138171833" cy="485.5923425929824" r="8.198459906997371" fill="#FF7A91" opacity="0.5829884275128685"/>
  <circle cx="914.3114840145884" cy="227.35495827298894" r="4.796319584163377" fill="#FF7A91" opacity="0.589985687136611"/>
  <circle cx="383.28661182528674" cy="946.1478878591344" r="6.173685078004684" fill="#FF7A91" opacity="0.4941494392914191"/>
  <circle cx="878.6472787168074" cy="936.2773340992659" r="5.1537459179955265" fill="#FF7A91" opacity="0.27277754150694783"/>
  <circle cx="333.4932236371132" cy="520.3582864843798" r="5.017976106934084" fill="#FF7A91" opacity="0.489986730895516"/>
  <circle cx="294.25981110204896" cy="555.1897065843682" r="7.008461940375028" fill="#FF7A91" opacity="0.36668981069819057"/>
  <circle cx="946.118056573656" cy="274.08733879632564" r="8.378029605017787" fill="#FF7A91" opacity="0.4264645261357105"/>
  <circle cx="533.1332827595841" cy="611.9920880706477" r="8.200801183662302" fill="#FF7A91" opacity="0.4547424788634432"/>
  <circle cx="1104.6798349784149" cy="260.6897284215239" r="7.77005652518408" fill="#FF7A91" opacity="0.25157804302540243"/>
  <circle cx="957.189255539222" cy="541.097168930805" r="7.165243333811052" fill="#FF7A91" opacity="0.5602779492931297"/>
  <circle cx="204.13093243539436" cy="458.1665718799819" r="8.004915166169326" fill="#FF7A91" opacity="0.5001272324877328"/>
  <circle cx="1135.161652962731" cy="990.8225911760453" r="5.515843551243551" fill="#FF7A91" opacity="0.34438294621258125"/>
  <circle cx="651.9385884558436" cy="599.9528230706275" r="6.54533640015586" fill="#FF7A91" opacity="0.2684764272382791"/>
  <circle cx="815.6581092674605" cy="500.9829060022746" r="5.852269360975339" fill="#FF7A91" opacity="0.4064354238055009"/>
  <circle cx="1130.8467340443021" cy="256.85235663341166" r="4.309370459357449" fill="#FF7A91" opacity="0.4991573137790812"/>
  <circle cx="1153.521656277153" cy="580.9834621600287" r="7.10283356879687" fill="#FF7A91" opacity="0.47935583131866805"/>
  <circle cx="203.79394094664949" cy="605.4310582334672" r="4.450614940139669" fill="#FF7A91" opacity="0.4728854691218629"/>
  <circle cx="1078.8148146226076" cy="921.5150833355631" r="8.390493785334378" fill="#FF7A91" opacity="0.36918489091171214"/>
  <circle cx="1319.8504059589266" cy="376.1875694668705" r="4.765297528454853" fill="#FF7A91" opacity="0.41801388273077256"/>
  <circle cx="373.5563192309387" cy="660.7010893050615" r="8.711075532052828" fill="#FF7A91" opacity="0.23745682035873675"/>
  <circle cx="726.6783266638228" cy="244.02832381268956" r="3.304847999919916" fill="#FF7A91" opacity="0.4112063677189576"/>
  <circle cx="1446.479008596448" cy="771.9693916219181" r="6.988093561364975" fill="#FF7A91" opacity="0.30828339449352565"/>
  <circle cx="942.6209976993664" cy="627.9344930321249" r="8.196684659572513" fill="#FF7A91" opacity="0.3656934351199091"/>
  <circle cx="266.4974127278954" cy="938.8273263780897" r="8.405595371586832" fill="#FF7A91" opacity="0.5586011833060852"/>
  <circle cx="1267.5610747706935" cy="310.3439692680189" r="4.8857421816428" fill="#FF7A91" opacity="0.4634079377125492"/>
  <circle cx="1303.77991227243" cy="576.5877543383765" r="7.474018412677233" fill="#FF7A91" opacity="0.49951531738329086"/>
  <circle cx="1377.0958034082907" cy="877.1734282336074" r="8.133187999019377" fill="#FF7A91" opacity="0.4473801872707128"/>
  <circle cx="869.252551158703" cy="336.03009388822056" r="8.0466688398242" fill="#FF7A91" opacity="0.25973399980282735"/>
  <circle cx="1486.679109449613" cy="689.7571483435974" r="3.390225259666963" fill="#FF7A91" opacity="0.33361720380068294"/>
  <circle cx="1034.621681118279" cy="951.0889412135866" r="4.341149166266872" fill="#FF7A91" opacity="0.30542948723056207"/>
  <circle cx="1381.319974396391" cy="615.9945679599489" r="6.853043168726018" fill="#FF7A91" opacity="0.2593598852084358"/>
  <circle cx="191.46630688827497" cy="583.6669891642526" r="5.858872941044202" fill="#FF7A91" opacity="0.5070384871454748"/>
  <circle cx="477.66768440561947" cy="395.02373813282657" r="4.980810877617867" fill="#FF7A91" opacity="0.37056844161729524"/>
  <circle cx="1107.651485265102" cy="651.5867498659649" r="6.9539105548627385" fill="#FF7A91" opacity="0.32571217835351335"/>
  <circle cx="1467.5917167052992" cy="1015.5835419402281" r="7.178708370108435" fill="#FF7A91" opacity="0.2654762472207922"/>
  <circle cx="1132.825734102811" cy="362.26032917500186" r="3.639284569712052" fill="#FF7A91" opacity="0.33561861252906355"/>
  <circle cx="899.15194788084" cy="264.2531876105415" r="6.702231063486453" fill="#FF7A91" opacity="0.4435582709334006"/>
  <text x="80" y="100" fill="#5C6478" font-family="ui-monospace, Menlo, monospace" font-size="22" letter-spacing="3">PREVIEW · EMOTION PULSE</text>
  <text x="80" y="1140" fill="#5C6478" font-family="Inter, system-ui, sans-serif" font-size="22">Live interactive view available on desktop · mindspaceos.com</text>
</svg>