<svg xmlns="http://www.w3.org/2000/svg" viewBox="0 0 1600 1200" preserveAspectRatio="xMidYMid meet">
  <rect width="1600" height="1200" fill="#0B0E13"/>
  <circle cx="580.8923392377159" cy="227.99995820133768" r="6.29896030483917" fill="#FF7A91" opacity="0.5877568905742991"/>
  <circle cx="622.1027658345246" cy="437.64942486934524" r="4.479033847434689" fill="#FF7A91" opacity="0.32671161886781475"/>
  <circle cx="398.662934855787" cy="327.73790347318857" r="5.711165047478443" fill="#FF7A91" opacity="0.5520954907785822"/>
  <circle cx="388.4240996056256" cy="650.288560655092" r="5.8705700054975605" fill="#FF7A91" opacity="0.502509985431173"/>
  <circle cx="119.15893654147197" cy="742.1598046127505" r="4.609137965213889" fill="#FF7A91" opacity="0.5190773071619539"/>
  <circle cx="633.0619191052581" cy="168.54808220447833" r="7.304845208981442" fill="#FF7A91" opacity="0.2232245318995434"/>
  <circle cx="492.37329882112584" cy="640.5414563718514" r="8.290135987586897" fill="#FF7A91" opacity="0.49757532259450077"/>
  <circle cx="1415.0218678539654" cy="439.70690963279213" r="7.02681687250983" fill="#FF7A91" opacity="0.46939317393214564"/>
  <circle cx="1051.3444818813305" cy="421.16235134539545" r="5.413072245565418" fill="#FF7A91" opacity="0.4525545378148406"/>
  <circle cx="244.58189123204318" cy="834.1461689936858" r="4.141815596352793" fill="#FF7A91" opacity="0.5899626276911709"/>
  <circle cx="1300.6251218511054" cy="788.702801865528" r="8.902978124035815" fill="#FF7A91" opacity="0.2568395812181502"/>
  <circle cx="366.3692363784146" cy="895.4812381256348" r="4.042173231410785" fill="#FF7A91" opacity="0.36048405744281553"/>
  <circle cx="391.8245193857076" cy="787.4553932147603" r="4.196777128626187" fill="#FF7A91" opacity="0.34511622684257826"/>
  <circle cx="298.5574976861472" cy="446.2915250815946" r="3.4145338879429845" fill="#FF7A91" opacity="0.4832770318990798"/>
  <circle cx="1134.8012377500183" cy="221.61735284763455" r="4.842440061222651" fill="#FF7A91" opacity="0.3336763410472332"/>
  <circle cx="1263.3600396742063" cy="950.3088768199896" r="6.000313078373104" fill="#FF7A91" opacity="0.5260280465820053"/>
  <circle cx="555.5080013920851" cy="234.69540174938544" r="7.303589334978373" fill="#FF7A91" opacity="0.23978351186927332"/>
  <circle cx="700.65005632898" cy="394.4500056335547" r="3.2542778025868815" fill="#FF7A91" opacity="0.5228494885949788"/>
  <circle cx="1127.7802822770036" cy="930.7327511951656" r="6.121827276814427" fill="#FF7A91" opacity="0.40546974402500546"/>
  <circle cx="349.61138196349214" cy="479.05790292030576" r="6.989701403392077" fill="#FF7A91" opacity="0.39400675511643823"/>
  <circle cx="1167.4423355514211" cy="551.9578602067638" r="5.898280471943787" fill="#FF7A91" opacity="0.3622275080866535"/>
  <circle cx="1365.8729282283248" cy="813.2140768946492" r="3.857154963466912" fill="#FF7A91" opacity="0.27597249311563066"/>
  <circle cx="843.1374322174826" cy="1025.5227298541051" r="3.4956982763469346" fill="#FF7A91" opacity="0.5388184646084146"/>
  <circle cx="540.9654689501949" cy="432.7790569860817" r="7.588700124125075" fill="#FF7A91" opacity="0.39617275859579887"/>
  <circle cx="515.5395440978024" cy="876.8805711728406" r="4.581044751154048" fill="#FF7A91" opacity="0.31617716698591275"/>
  <circle cx="1481.6586187833195" cy="237.12980896066273" r="4.7307870473011" fill="#FF7A91" opacity="0.428007924740584"/>
  <circle cx="495.6501710197875" cy="660.7151575613462" r="8.748774414004796" fill="#FF7A91" opacity="0.31320353382152655"/>
  <circle cx="515.7755278440957" cy="951.854954818777" r="7.981005539911546" fill="#FF7A91" opacity="0.42556560650419906"/>
  <circle cx="793.4965512363855" cy="531.7890116182116" r="4.358814361557879" fill="#FF7A91" opacity="0.4824096623554913"/>
  <circle cx="956.2475797593671" cy="667.0432875485715" r="6.395466057659926" fill="#FF7A91" opacity="0.4381458095563765"/>
  <circle cx="1157.9522494510645" cy="740.7980498674275" r="5.654409953092717" fill="#FF7A91" opacity="0.2585884087157597"/>
  <circle cx="1055.201765341279" cy="162.87787912345075" r="6.9829273362211275" fill="#FF7A91" opacity="0.21876614808242412"/>
  <circle cx="469.651420183898" cy="507.9961081649992" r="4.030979671732548" fill="#FF7A91" opacity="0.31532392649095353"/>
  <circle cx="481.31065562155186" cy="954.4659278253799" r="6.873086940966164" fill="#FF7A91" opacity="0.48657650779608397"/>
  <circle cx="134.22459502899738" cy="664.2560868896053" r="6.671400571145355" fill="#FF7A91" opacity="0.5096570865816391"/>
  <circle cx="982.3057386173743" cy="1028.5535523454992" r="5.179648172940573" fill="#FF7A91" opacity="0.4714565770023107"/>
  <circle cx="157.99097745461913" cy="480.36339067191244" r="4.746352040791362" fill="#FF7A91" opacity="0.29015999711799123"/>
  <circle cx="510.8597405708998" cy="318.71956926284935" r="5.6137261707821455" fill="#FF7A91" opacity="0.24487788020778167"/>
  <circle cx="1189.9753316449967" cy="482.56092895413445" r="3.929250772432079" fill="#FF7A91" opacity="0.20897090369856555"/>
  <circle cx="308.396127456205" cy="719.6007199002845" r="4.116748574376308" fill="#FF7A91" opacity="0.5575487333265254"/>
  <circle cx="1266.695948232671" cy="226.130762944384" r="3.369919402226241" fill="#FF7A91" opacity="0.5429197671072683"/>
  <circle cx="1057.7803463922714" cy="731.0767454094357" r="4.844055367928039" fill="#FF7A91" opacity="0.5541242139919316"/>
  <circle cx="408.0905927819953" cy="259.45266432086805" r="7.800249281524719" fill="#FF7A91" opacity="0.559769783481431"/>
  <circle cx="737.182034769801" cy="707.8138641873829" r="5.8048293223314715" fill="#FF7A91" opacity="0.35901973485255395"/>
  <circle cx="1153.3461753938789" cy="665.488624189624" r="6.261845718315069" fill="#FF7A91" opacity="0.5750400501377582"/>
  <circle cx="1122.834283202394" cy="947.2926016910278" r="5.251515073198609" fill="#FF7A91" opacity="0.4498371178724893"/>
  <circle cx="991.6309486121722" cy="307.9115219497047" r="7.828050082889571" fill="#FF7A91" opacity="0.29126357352144416"/>
  <circle cx="1010.6010011938683" cy="396.1090766951065" r="4.448095939940216" fill="#FF7A91" opacity="0.23598544240224795"/>
  <circle cx="758.8558956295396" cy="962.4161199964159" r="6.5657444204180395" fill="#FF7A91" opacity="0.32545572211944257"/>
  <circle cx="613.3055709259842" cy="817.1461367461767" r="6.453659141245106" fill="#FF7A91" opacity="0.38926269258365737"/>
  <circle cx="1131.5625518561608" cy="498.8804681526209" r="3.0140661271898437" fill="#FF7A91" opacity="0.5569671406995388"/>
  <circle cx="649.1598490321904" cy="370.01964686779195" r="5.465091850116753" fill="#FF7A91" opacity="0.45985693670147965"/>
  <circle cx="370.5520855953624" cy="1017.1385816348586" r="8.40166649684096" fill="#FF7A91" opacity="0.5686747065135056"/>
  <circle cx="1144.520352052486" cy="345.6042107274362" r="3.0576442791999945" fill="#FF7A91" opacity="0.5299641085756689"/>
  <circle cx="1466.8791082335595" cy="755.7552901609168" r="4.966067808783676" fill="#FF7A91" opacity="0.4756101280079644"/>
  <circle cx="435.0224993521852" cy="808.7649334348586" r="5.702466458343779" fill="#FF7A91" opacity="0.5803908458654177"/>
  <circle cx="307.17007005910756" cy="259.8202358526857" r="6.031339454123217" fill="#FF7A91" opacity="0.2685954432093712"/>
  <circle cx="278.8374608461004" cy="158.22151085028946" r="6.380414985683063" fill="#FF7A91" opacity="0.27997515821107627"/>
  <circle cx="493.70759151947374" cy="891.3824897126983" r="6.318255254660359" fill="#FF7A91" opacity="0.312913946660492"/>
  <circle cx="294.7859834894218" cy="470.0282182394968" r="3.869215511421144" fill="#FF7A91" opacity="0.21756994522806733"/>
  <circle cx="1180.2974091333367" cy="880.5807358283423" r="7.9276691763039135" fill="#FF7A91" opacity="0.38815285667876"/>
  <circle cx="649.1682443501911" cy="830.8931206852709" r="4.4928385758811835" fill="#FF7A91" opacity="0.2277576893331295"/>
  <circle cx="1260.6871090989086" cy="248.22902448910628" r="7.070851839583984" fill="#FF7A91" opacity="0.2160450808739115"/>
  <circle cx="171.43565828315764" cy="377.728158428773" r="5.51963578446524" fill="#FF7A91" opacity="0.4832699116416969"/>
  <circle cx="223.6962987630149" cy="408.4038137922395" r="5.11202718227468" fill="#FF7A91" opacity="0.2205236492198703"/>
  <circle cx="261.5933666816668" cy="774.176498238533" r="5.212371072890794" fill="#FF7A91" opacity="0.4401983958361304"/>
  <circle cx="1470.1654118810254" cy="223.02447816290874" r="7.545889510955131" fill="#FF7A91" opacity="0.24045061111919921"/>
  <circle cx="1008.59130503377" cy="156.134077268027" r="8.700341699663692" fill="#FF7A91" opacity="0.39102337524052966"/>
  <circle cx="532.0976359022778" cy="1048.8791362523127" r="3.3097813658514936" fill="#FF7A91" opacity="0.35413520638555984"/>
  <circle cx="100.79548489381878" cy="999.4468590275974" r="5.025809280101456" fill="#FF7A91" opacity="0.518789931380301"/>
  <circle cx="173.92568956054475" cy="553.9156473519095" r="3.4051211573995723" fill="#FF7A91" opacity="0.5527260545784414"/>
  <circle cx="588.8033541953171" cy="1008.0864393707759" r="7.718540232991281" fill="#FF7A91" opacity="0.23659716438047151"/>
  <circle cx="274.55368757324277" cy="380.3775378047412" r="5.945609907866573" fill="#FF7A91" opacity="0.4818557516274262"/>
  <circle cx="820.564270609093" cy="772.22115706088" r="3.631528732769047" fill="#FF7A91" opacity="0.20667732624237659"/>
  <circle cx="100.74302759774815" cy="940.8108000302955" r="7.002664296179256" fill="#FF7A91" opacity="0.39000173577739483"/>
  <circle cx="887.4650128536981" cy="947.7992620719625" r="8.01338605104064" fill="#FF7A91" opacity="0.49001024040712754"/>
  <circle cx="1387.0517419643108" cy="203.6681447879427" r="8.688313070663565" fill="#FF7A91" opacity="0.39321272491357995"/>
  <circle cx="136.51728463065723" cy="1025.6212430506698" r="7.960945252581226" fill="#FF7A91" opacity="0.231686031630256"/>
  <circle cx="249.65894304440178" cy="275.0955649213372" r="7.40856207763644" fill="#FF7A91" opacity="0.4737109274842989"/>
  <circle cx="1032.3694244930914" cy="1045.7661848723842" r="8.211080462333141" fill="#FF7A91" opacity="0.4210814799885945"/>
  <text x="80" y="100" fill="#5C6478" font-family="ui-monospace, Menlo, monospace" font-size="22" letter-spacing="3">PREVIEW · EMOTION PULSE</text>
  <text x="80" y="1140" fill="#5C6478" font-family="Inter, system-ui, sans-serif" font-size="22">Live interactive view available on desktop · mindspaceos.com</text>
</svg>