<svg xmlns="http://www.w3.org/2000/svg" viewBox="0 0 1600 1200" preserveAspectRatio="xMidYMid meet">
  <rect width="1600" height="1200" fill="#0B0E13"/>
  <circle cx="1268.0511840387428" cy="594.0064830923143" r="5.678378713145292" fill="#B557E0" opacity="0.522580373752176"/>
  <circle cx="1297.7594571481002" cy="502.6023862484523" r="4.888803675355616" fill="#B557E0" opacity="0.43336446909745524"/>
  <circle cx="1212.4456978021922" cy="160.9790715677684" r="8.692477389936055" fill="#B557E0" opacity="0.591806175419737"/>
  <circle cx="814.9455258846806" cy="578.5977966241546" r="3.0590786761801203" fill="#B557E0" opacity="0.21582967961254737"/>
  <circle cx="1360.92487605865" cy="754.8443827116463" r="4.937352486521862" fill="#B557E0" opacity="0.44353382093725385"/>
  <circle cx="1491.2957312357948" cy="438.2443647172049" r="5.053148009017555" fill="#B557E0" opacity="0.2550214360135128"/>
  <circle cx="402.7267660647164" cy="393.5056668995962" r="7.731558848102692" fill="#B557E0" opacity="0.3388535418541838"/>
  <circle cx="475.46834564404304" cy="726.1817066056494" r="3.5195059368384443" fill="#B557E0" opacity="0.46349301886279554"/>
  <circle cx="753.9291500822685" cy="576.0393600482689" r="8.850591634710486" fill="#B557E0" opacity="0.5527393522320441"/>
  <circle cx="304.0644567760346" cy="975.1065209138516" r="7.317900515661464" fill="#B557E0" opacity="0.4369474778284721"/>
  <circle cx="982.8911282619699" cy="902.9365051989989" r="3.5697422747044922" fill="#B557E0" opacity="0.5196609025714969"/>
  <circle cx="217.4672673818451" cy="635.1006009019204" r="4.753116014330811" fill="#B557E0" opacity="0.43383619013518504"/>
  <circle cx="558.8875971327308" cy="434.1598307491643" r="4.9615869388259926" fill="#B557E0" opacity="0.3451372801336521"/>
  <circle cx="1132.1073512889616" cy="1027.4765361224845" r="8.628501682668567" fill="#B557E0" opacity="0.28001137869782666"/>
  <circle cx="672.3675178446521" cy="695.7001182153911" r="6.2966791369655555" fill="#B557E0" opacity="0.5665989393482715"/>
  <circle cx="909.5068364722213" cy="921.1735704840308" r="6.236451938641326" fill="#B557E0" opacity="0.3548553560555835"/>
  <circle cx="392.80595225719816" cy="604.429346094738" r="4.25468695514062" fill="#B557E0" opacity="0.5774662147030685"/>
  <circle cx="245.85411762940637" cy="910.247597611069" r="7.313739880734928" fill="#B557E0" opacity="0.3328500369942696"/>
  <circle cx="431.7360337313541" cy="1033.9494008922215" r="5.684493333037701" fill="#B557E0" opacity="0.5758246647904808"/>
  <circle cx="505.40243324933317" cy="162.2133557151598" r="4.1102960576183065" fill="#B557E0" opacity="0.48259389865708213"/>
  <circle cx="467.61703315485386" cy="376.9240790366797" r="4.924229850087373" fill="#B557E0" opacity="0.38653461448011045"/>
  <circle cx="1240.4112750262582" cy="196.33094076565763" r="3.9705040142058943" fill="#B557E0" opacity="0.2964593458907946"/>
  <circle cx="981.3258642217644" cy="1041.3351108292188" r="4.55647381801708" fill="#B557E0" opacity="0.3195667243360816"/>
  <circle cx="1417.8652750893928" cy="271.9397256792151" r="5.369074141381555" fill="#B557E0" opacity="0.24879791000918527"/>
  <circle cx="1412.5608391354644" cy="780.2289277457721" r="3.5237140648985927" fill="#B557E0" opacity="0.22245319695606952"/>
  <circle cx="773.2507875002065" cy="431.14960271287833" r="4.752777452113072" fill="#B557E0" opacity="0.5400484495914376"/>
  <circle cx="533.6926464934186" cy="637.9487632487057" r="8.208786326640563" fill="#B557E0" opacity="0.3748167148029899"/>
  <circle cx="527.6054143412963" cy="504.9204400892774" r="8.559291444610103" fill="#B557E0" opacity="0.3858078955063608"/>
  <circle cx="1111.7024174046978" cy="299.2721084217436" r="3.1911689787245887" fill="#B557E0" opacity="0.4045418561825743"/>
  <circle cx="117.91188145667061" cy="708.327783431638" r="3.5739287303311236" fill="#B557E0" opacity="0.37650828181921137"/>
  <circle cx="956.3957613442927" cy="735.7881502480371" r="7.213141349425595" fill="#B557E0" opacity="0.25029526751977027"/>
  <circle cx="1188.235076090062" cy="216.71822769340307" r="6.7631960788551595" fill="#B557E0" opacity="0.5816781651549507"/>
  <circle cx="272.0865189757318" cy="681.6180220097713" r="5.574441359165307" fill="#B557E0" opacity="0.46846257768368166"/>
  <circle cx="601.5342786803703" cy="794.1618145609373" r="4.2298613888138625" fill="#B557E0" opacity="0.502928317079716"/>
  <circle cx="1063.1639458318054" cy="805.1384348604059" r="7.107810004642488" fill="#B557E0" opacity="0.598221250577716"/>
  <circle cx="1235.0118952356172" cy="591.9043744013778" r="3.718502050131092" fill="#B557E0" opacity="0.2666439670511206"/>
  <circle cx="638.0188789812222" cy="842.9042337608296" r="8.929898753174337" fill="#B557E0" opacity="0.4667619978424362"/>
  <circle cx="169.43455909251622" cy="234.71818783260912" r="7.480299475163866" fill="#B557E0" opacity="0.3830368910135696"/>
  <circle cx="738.5963491649705" cy="593.9982353260611" r="5.885697443688494" fill="#B557E0" opacity="0.2116968158931703"/>
  <circle cx="393.1622987423308" cy="210.31034299023833" r="8.903844503729651" fill="#B557E0" opacity="0.4788155244105044"/>
  <circle cx="314.9045236506345" cy="815.4909422608823" r="8.342650277407728" fill="#B557E0" opacity="0.3842916092443135"/>
  <circle cx="541.3997515119113" cy="316.46991199936366" r="7.84695674796582" fill="#B557E0" opacity="0.5830712833895622"/>
  <circle cx="1464.7578314771622" cy="811.937287092658" r="5.953271079188611" fill="#B557E0" opacity="0.40828758608905286"/>
  <circle cx="863.6704227293781" cy="323.0225711509387" r="6.847999420224336" fill="#B557E0" opacity="0.598902436035184"/>
  <circle cx="329.2399676290479" cy="574.8415963014394" r="6.231264958883736" fill="#B557E0" opacity="0.394377162564147"/>
  <circle cx="401.8683509699705" cy="774.5479681769077" r="5.080442811385183" fill="#B557E0" opacity="0.4548532147881601"/>
  <circle cx="219.22417903251176" cy="203.25866385597348" r="3.7798856972068933" fill="#B557E0" opacity="0.27907581869193343"/>
  <circle cx="145.1948107519899" cy="581.5400989561886" r="8.30002682153541" fill="#B557E0" opacity="0.5183399832117899"/>
  <circle cx="1204.9768151675291" cy="670.0372513220625" r="5.140821941268054" fill="#B557E0" opacity="0.5495558781635299"/>
  <circle cx="377.2507902473379" cy="417.75372822675433" r="7.204930404054192" fill="#B557E0" opacity="0.23538527077020183"/>
  <circle cx="1363.2549247118095" cy="589.2078154891217" r="8.088389583976637" fill="#B557E0" opacity="0.5061740111612085"/>
  <circle cx="547.7309240514035" cy="954.8542639632567" r="6.988263932356811" fill="#B557E0" opacity="0.5775627969575365"/>
  <circle cx="417.0717404361815" cy="259.115464325687" r="4.197006286720874" fill="#B557E0" opacity="0.3709257247853345"/>
  <circle cx="1060.8941462175137" cy="170.70888284594122" r="6.528273037256606" fill="#B557E0" opacity="0.3375053784646068"/>
  <circle cx="676.9742624166861" cy="774.4037211394904" r="5.930822356858008" fill="#B557E0" opacity="0.33240988704618296"/>
  <circle cx="328.69231726127015" cy="592.9890289377709" r="6.775851462382694" fill="#B557E0" opacity="0.28760418426998485"/>
  <circle cx="270.6306617282358" cy="591.3774870396117" r="3.194800914099808" fill="#B557E0" opacity="0.325567586277142"/>
  <circle cx="1330.44884339595" cy="1004.4225380288711" r="5.115507093368448" fill="#B557E0" opacity="0.20931957601379733"/>
  <circle cx="639.7186677105152" cy="938.7807577818365" r="3.4808353811678394" fill="#B557E0" opacity="0.5637020640291963"/>
  <circle cx="415.9345960858667" cy="234.45361932541576" r="4.430702528347699" fill="#B557E0" opacity="0.4306216103197309"/>
  <circle cx="710.5017490982362" cy="201.5600982641256" r="6.237492741546243" fill="#B557E0" opacity="0.5291713398207235"/>
  <circle cx="905.0072090800061" cy="546.4360920811239" r="7.579198213018727" fill="#B557E0" opacity="0.20503500413187972"/>
  <circle cx="508.7370824288664" cy="853.2889909118302" r="3.248609684902693" fill="#B557E0" opacity="0.21554192516671491"/>
  <circle cx="1497.9502180123795" cy="827.0748725592382" r="5.2338841272683245" fill="#B557E0" opacity="0.4281643893328388"/>
  <circle cx="962.0734965444348" cy="576.1571601829173" r="7.246621598429522" fill="#B557E0" opacity="0.5719638887860399"/>
  <circle cx="1138.0519465094746" cy="937.2343054871022" r="6.196449934598412" fill="#B557E0" opacity="0.3724668133870959"/>
  <circle cx="1400.9303170453572" cy="1010.1077698327408" r="3.9763106281462237" fill="#B557E0" opacity="0.3821062880662263"/>
  <circle cx="1296.1269308854055" cy="494.92862436117247" r="7.184330491838471" fill="#B557E0" opacity="0.46535789840906744"/>
  <circle cx="1300.8929317417712" cy="164.05771968950705" r="8.484051127673377" fill="#B557E0" opacity="0.5864889676406151"/>
  <circle cx="926.3771478262853" cy="981.5209025001421" r="4.547892969799571" fill="#B557E0" opacity="0.25604202995538444"/>
  <circle cx="642.2125120328684" cy="373.2011495014359" r="4.264209088841399" fill="#B557E0" opacity="0.22368574247603712"/>
  <circle cx="687.0835835630821" cy="989.8928269397888" r="3.727654412520269" fill="#B557E0" opacity="0.4215838663723621"/>
  <circle cx="504.5018909704857" cy="976.9411522943398" r="3.2616767861747986" fill="#B557E0" opacity="0.4225344863707899"/>
  <circle cx="293.1121716520945" cy="537.5061137575308" r="3.6064155082969798" fill="#B557E0" opacity="0.48806346947863877"/>
  <circle cx="1035.3276559914584" cy="495.72455850876776" r="4.071360035544226" fill="#B557E0" opacity="0.2772264716303203"/>
  <circle cx="559.5749852977126" cy="433.9132414560578" r="4.6396088038636965" fill="#B557E0" opacity="0.30253202108131855"/>
  <circle cx="289.77005630196936" cy="429.9692102258903" r="6.978927446997987" fill="#B557E0" opacity="0.3428828591650861"/>
  <circle cx="568.0048124902961" cy="666.1578236989099" r="5.929416227386093" fill="#B557E0" opacity="0.36314680693171875"/>
  <circle cx="826.7211663751016" cy="841.5076185956599" r="6.034408632161682" fill="#B557E0" opacity="0.599600206777917"/>
  <circle cx="1036.4880287809883" cy="1046.7265967335497" r="5.380919118580666" fill="#B557E0" opacity="0.2608670585675301"/>
  <text x="80" y="100" fill="#5C6478" font-family="ui-monospace, Menlo, monospace" font-size="22" letter-spacing="3">PREVIEW · INNER LIFE CURRENTS</text>
  <text x="80" y="1140" fill="#5C6478" font-family="Inter, system-ui, sans-serif" font-size="22">Live interactive view available on desktop · mindspaceos.com</text>
</svg>