<svg xmlns="http://www.w3.org/2000/svg" viewBox="0 0 1600 1200" preserveAspectRatio="xMidYMid meet">
  <rect width="1600" height="1200" fill="#0B0E13"/>
  <circle cx="763.1916968114393" cy="187.54101847341354" r="6.4990367180831505" fill="#B557E0" opacity="0.26419790814472954"/>
  <circle cx="845.44166145239" cy="508.6528421505265" r="5.915883472562597" fill="#B557E0" opacity="0.5485584150059084"/>
  <circle cx="1104.6119587051" cy="1041.3409262184064" r="8.263279914860169" fill="#B557E0" opacity="0.2227078474243198"/>
  <circle cx="1438.5261472312861" cy="485.0666618515264" r="7.806651163661387" fill="#B557E0" opacity="0.5300724628184244"/>
  <circle cx="785.7522419813102" cy="733.3869029303474" r="7.024383151337034" fill="#B557E0" opacity="0.4901611193956074"/>
  <circle cx="622.2389726275561" cy="563.780047720869" r="8.17764541734433" fill="#B557E0" opacity="0.5444268444942586"/>
  <circle cx="701.4651058609269" cy="504.586619120121" r="6.011869338299885" fill="#B557E0" opacity="0.5470422376460327"/>
  <circle cx="823.6086602855971" cy="434.91958851449317" r="7.729045709475306" fill="#B557E0" opacity="0.4702376462963345"/>
  <circle cx="629.0473258873651" cy="586.0084914907483" r="7.516528744390821" fill="#B557E0" opacity="0.4542944964126052"/>
  <circle cx="1304.295210884167" cy="850.3571454304288" r="5.510254696296216" fill="#B557E0" opacity="0.34338974801971867"/>
  <circle cx="472.19901548008534" cy="530.2515634788952" r="3.3604110384608084" fill="#B557E0" opacity="0.3564122690492326"/>
  <circle cx="1283.5243677207948" cy="489.0798060284267" r="4.451312916234304" fill="#B557E0" opacity="0.5382974872581925"/>
  <circle cx="763.9931026963325" cy="921.1932934975121" r="4.736742429952693" fill="#B557E0" opacity="0.5223215757026456"/>
  <circle cx="324.6846613381041" cy="723.7360168198386" r="4.793254692042669" fill="#B557E0" opacity="0.3573857566424177"/>
  <circle cx="1105.6641428785488" cy="536.7089593635437" r="8.061664620210733" fill="#B557E0" opacity="0.47386503616578607"/>
  <circle cx="612.5977042430154" cy="618.9919138551381" r="3.8460402398444726" fill="#B557E0" opacity="0.2897320553791888"/>
  <circle cx="631.814702110592" cy="861.8551051457316" r="4.389286682035266" fill="#B557E0" opacity="0.529702812852318"/>
  <circle cx="488.05455629187577" cy="714.4106135414236" r="4.489261759319798" fill="#B557E0" opacity="0.26504877631108803"/>
  <circle cx="1494.4648114871688" cy="440.2424300297421" r="7.8425462626036415" fill="#B557E0" opacity="0.46836181726786097"/>
  <circle cx="167.85826389295391" cy="477.14613451903995" r="3.5682129525024946" fill="#B557E0" opacity="0.2705169871578879"/>
  <circle cx="820.2672718728701" cy="794.2279923233415" r="7.80392430113324" fill="#B557E0" opacity="0.3507827809608561"/>
  <circle cx="960.1602398530085" cy="838.5077379219127" r="7.675535631988409" fill="#B557E0" opacity="0.48518165092600696"/>
  <circle cx="761.7871819854146" cy="811.3444932011779" r="5.899655874800935" fill="#B557E0" opacity="0.587866365832628"/>
  <circle cx="361.28663328413404" cy="544.5464718082223" r="7.567387543024955" fill="#B557E0" opacity="0.36119193247287884"/>
  <circle cx="1252.639609702191" cy="845.9387653001063" r="7.174669250422635" fill="#B557E0" opacity="0.45389556094612504"/>
  <circle cx="420.5881399090042" cy="1042.0649953352136" r="7.199166622138186" fill="#B557E0" opacity="0.4624150710923305"/>
  <circle cx="1094.1425181432887" cy="270.24269925026925" r="3.5743242934797386" fill="#B557E0" opacity="0.363381401102096"/>
  <circle cx="874.0863069243235" cy="528.6617757729405" r="7.40545847399099" fill="#B557E0" opacity="0.3323474654823787"/>
  <circle cx="475.7224965457925" cy="945.3144492679207" r="8.755736821666066" fill="#B557E0" opacity="0.40440705222499534"/>
  <circle cx="481.1412666518078" cy="1018.7659109214486" r="3.276747983096304" fill="#B557E0" opacity="0.23249110730275976"/>
  <circle cx="157.3441168602149" cy="281.7578566362467" r="7.721846509098047" fill="#B557E0" opacity="0.5068629816941662"/>
  <circle cx="153.5573037262597" cy="941.931028121962" r="3.6659738707088154" fill="#B557E0" opacity="0.5325203973747406"/>
  <circle cx="1234.3157927599775" cy="202.06723913517874" r="6.041826189755312" fill="#B557E0" opacity="0.4002633123053402"/>
  <circle cx="917.7860035473341" cy="966.7136541270011" r="7.680610462410164" fill="#B557E0" opacity="0.49735577436306466"/>
  <circle cx="460.66316443103784" cy="843.5955652362595" r="8.139112025474226" fill="#B557E0" opacity="0.353260969388478"/>
  <circle cx="818.0353305150185" cy="355.8217612258071" r="8.20846682038873" fill="#B557E0" opacity="0.26196245012596525"/>
  <circle cx="831.5914249505513" cy="945.0089247141891" r="7.113615119097068" fill="#B557E0" opacity="0.5599513851099935"/>
  <circle cx="1423.310280692848" cy="674.5815585906322" r="7.206083423617269" fill="#B557E0" opacity="0.5534989722991162"/>
  <circle cx="1345.4625342696615" cy="433.9190466029239" r="3.3297634648991625" fill="#B557E0" opacity="0.5037153535894775"/>
  <circle cx="468.1754091737947" cy="560.6635766997538" r="8.032557878122713" fill="#B557E0" opacity="0.2710464267169477"/>
  <circle cx="215.08139442368068" cy="350.6313806618641" r="7.57915802153849" fill="#B557E0" opacity="0.4899057038094222"/>
  <circle cx="796.6955221195722" cy="649.5877452493282" r="5.721926108089365" fill="#B557E0" opacity="0.5266963562331421"/>
  <circle cx="436.3594335494259" cy="423.02137218014434" r="5.825465464893045" fill="#B557E0" opacity="0.5248241891665946"/>
  <circle cx="1101.9333126480783" cy="222.83693325784714" r="3.188093426216296" fill="#B557E0" opacity="0.375561400673442"/>
  <circle cx="332.6280418596947" cy="406.83997509852287" r="8.334454894386894" fill="#B557E0" opacity="0.20606644925811968"/>
  <circle cx="558.8447311229163" cy="920.3343497530873" r="5.756289474819699" fill="#B557E0" opacity="0.20893066734091376"/>
  <circle cx="1345.1347359080148" cy="852.4472736089416" r="3.542642498234116" fill="#B557E0" opacity="0.5475245025967476"/>
  <circle cx="1388.1785380897877" cy="678.985759619805" r="5.685346169622183" fill="#B557E0" opacity="0.5265687089222506"/>
  <circle cx="1270.2806050468128" cy="1045.2853781612034" r="3.8036871210966865" fill="#B557E0" opacity="0.41142441549850955"/>
  <circle cx="507.28784915041973" cy="764.5186962526767" r="5.766283445174066" fill="#B557E0" opacity="0.4426215297627184"/>
  <circle cx="882.6730177345739" cy="589.8031437426464" r="5.127806896733389" fill="#B557E0" opacity="0.5883939205219854"/>
  <circle cx="598.7527327470109" cy="1033.590175238998" r="5.493908493003154" fill="#B557E0" opacity="0.42872471872195106"/>
  <circle cx="1290.012739127726" cy="578.2902212593407" r="4.90390558945728" fill="#B557E0" opacity="0.4388323158395011"/>
  <circle cx="485.8345251509362" cy="590.040919157488" r="3.528981811959218" fill="#B557E0" opacity="0.2964496295908771"/>
  <circle cx="446.2612762460919" cy="509.22561338706686" r="6.66620118842973" fill="#B557E0" opacity="0.21109380672812034"/>
  <circle cx="825.961896640194" cy="457.4086008375975" r="7.076455945522294" fill="#B557E0" opacity="0.2672009858530247"/>
  <circle cx="122.66115132387367" cy="732.7014907920167" r="6.965475106605036" fill="#B557E0" opacity="0.5860571853096491"/>
  <circle cx="1404.8287113296446" cy="977.6721899442648" r="5.133557346627425" fill="#B557E0" opacity="0.23300116760341383"/>
  <circle cx="1359.8814155191455" cy="1005.6553602687604" r="6.641856591344163" fill="#B557E0" opacity="0.43662009228702564"/>
  <circle cx="104.29132817436924" cy="351.3047951312449" r="8.05701107803607" fill="#B557E0" opacity="0.5248907151464371"/>
  <circle cx="997.7698359739993" cy="691.0702170401363" r="3.91677768573378" fill="#B557E0" opacity="0.3785291576236183"/>
  <circle cx="1471.4039993689962" cy="209.96492383239752" r="4.865032655223847" fill="#B557E0" opacity="0.4748826953475451"/>
  <circle cx="174.77055795345638" cy="541.9552590312211" r="6.903743338867573" fill="#B557E0" opacity="0.36241200827350784"/>
  <circle cx="781.5549419332075" cy="529.9230479289217" r="5.710688629431291" fill="#B557E0" opacity="0.2351058024457643"/>
  <circle cx="896.5838286103973" cy="767.2958291330186" r="3.8684700295114283" fill="#B557E0" opacity="0.5917296618548102"/>
  <circle cx="745.3151140456224" cy="839.0411828472812" r="8.153377840629325" fill="#B557E0" opacity="0.23374681724802251"/>
  <circle cx="757.3464389925049" cy="522.3780530650952" r="8.450155001106696" fill="#B557E0" opacity="0.3258853826561131"/>
  <circle cx="303.5571645921949" cy="903.5024257338357" r="3.2606391695684938" fill="#B557E0" opacity="0.48952567055897833"/>
  <circle cx="685.4646430806736" cy="1006.3361190431194" r="5.270108678167095" fill="#B557E0" opacity="0.21416337981287148"/>
  <circle cx="1244.91050355053" cy="184.9074288692347" r="6.787712912561082" fill="#B557E0" opacity="0.31689986635939965"/>
  <circle cx="318.87279368558995" cy="729.7426100719847" r="4.292744445960543" fill="#B557E0" opacity="0.4265224939609569"/>
  <circle cx="679.0270719037236" cy="778.3512670890988" r="8.218771235850674" fill="#B557E0" opacity="0.4727830295488762"/>
  <circle cx="706.6285572737551" cy="846.4136865872746" r="8.263296091234434" fill="#B557E0" opacity="0.25116539117340697"/>
  <circle cx="678.6625539875995" cy="750.0539184436035" r="8.829211402078533" fill="#B557E0" opacity="0.376898056861537"/>
  <circle cx="370.70090910375666" cy="911.5908905942928" r="8.328294783473888" fill="#B557E0" opacity="0.5966825377356184"/>
  <circle cx="577.4637466132062" cy="600.7435261910163" r="5.190542606790883" fill="#B557E0" opacity="0.5372950573675321"/>
  <circle cx="1129.3859122358106" cy="711.7876003240345" r="8.66122185388673" fill="#B557E0" opacity="0.3063812334687413"/>
  <circle cx="922.2166056233616" cy="439.4620120937706" r="7.79786469990091" fill="#B557E0" opacity="0.5968186563041246"/>
  <circle cx="887.0226434104671" cy="585.8585399135213" r="6.846250757671122" fill="#B557E0" opacity="0.40335447150639486"/>
  <circle cx="1084.509444194532" cy="483.0590567366087" r="6.550104254182526" fill="#B557E0" opacity="0.45203182260194197"/>
  <text x="80" y="100" fill="#5C6478" font-family="ui-monospace, Menlo, monospace" font-size="22" letter-spacing="3">PREVIEW · INNER LIFE CURRENTS</text>
  <text x="80" y="1140" fill="#5C6478" font-family="Inter, system-ui, sans-serif" font-size="22">Live interactive view available on desktop · mindspaceos.com</text>
</svg>